<svg width="440" height="317" viewBox="0 0 440 317" fill="none" xmlns="http://www.w3.org/2000/svg">
<g filter="url(#filter0_i)">
<rect width="440" height="317" rx="20" fill="white" fill-opacity="0.1"/>
<path d="M386.061 270.061C386.646 269.475 386.646 268.525 386.061 267.939L376.515 258.393C375.929 257.808 374.979 257.808 374.393 258.393C373.808 258.979 373.808 259.929 374.393 260.515L382.879 269L374.393 277.485C373.808 278.071 373.808 279.021 374.393 279.607C374.979 280.192 375.929 280.192 376.515 279.607L386.061 270.061ZM49 270.5H385V267.5H49V270.5Z" fill="white"/>
<path d="M50.0607 51.9393C49.4749 51.3535 48.5251 51.3535 47.9393 51.9393L38.3934 61.4853C37.8076 62.0711 37.8076 63.0208 38.3934 63.6066C38.9792 64.1924 39.9289 64.1924 40.5147 63.6066L49 55.1213L57.4853 63.6066C58.0711 64.1924 59.0208 64.1924 59.6066 63.6066C60.1924 63.0208 60.1924 62.0711 59.6066 61.4853L50.0607 51.9393ZM50.5 269L50.5 53L47.5 53L47.5 269L50.5 269Z" fill="white"/>
<path d="M403.24 268.04L407.52 275H405.46L402.12 269.56L398.94 275H396.92L401.18 268.04L396.9 261.06H398.94L402.3 266.52L405.5 261.06H407.54L403.24 268.04Z" fill="white"/>
<path d="M54.3 31.06L49.76 39.74V45H47.94V39.74L43.38 31.06H45.4L48.84 38.12L52.28 31.06H54.3Z" fill="white"/>
<path d="M40.86 287.14C39.5667 287.14 38.3867 286.84 37.32 286.24C36.2533 285.627 35.4067 284.78 34.78 283.7C34.1667 282.607 33.86 281.38 33.86 280.02C33.86 278.66 34.1667 277.44 34.78 276.36C35.4067 275.267 36.2533 274.42 37.32 273.82C38.3867 273.207 39.5667 272.9 40.86 272.9C42.1667 272.9 43.3533 273.207 44.42 273.82C45.4867 274.42 46.3267 275.26 46.94 276.34C47.5533 277.42 47.86 278.647 47.86 280.02C47.86 281.393 47.5533 282.62 46.94 283.7C46.3267 284.78 45.4867 285.627 44.42 286.24C43.3533 286.84 42.1667 287.14 40.86 287.14ZM40.86 285.56C41.8333 285.56 42.7067 285.333 43.48 284.88C44.2667 284.427 44.88 283.78 45.32 282.94C45.7733 282.1 46 281.127 46 280.02C46 278.9 45.7733 277.927 45.32 277.1C44.88 276.26 44.2733 275.613 43.5 275.16C42.7267 274.707 41.8467 274.48 40.86 274.48C39.8733 274.48 38.9933 274.707 38.22 275.16C37.4467 275.613 36.8333 276.26 36.38 277.1C35.94 277.927 35.72 278.9 35.72 280.02C35.72 281.127 35.94 282.1 36.38 282.94C36.8333 283.78 37.4467 284.427 38.22 284.88C39.0067 285.333 39.8867 285.56 40.86 285.56Z" fill="white"/>
<path d="M117.445 282L115.495 278.94L113.62 282H112.195L114.85 277.92L112.195 273.78H113.74L115.69 276.825L117.55 273.78H118.975L116.335 277.845L118.99 282H117.445Z" fill="white"/>
<path d="M38.235 181.78L33.285 193.87H31.875L33.495 189.91L30.18 181.78H31.695L34.275 188.44L36.825 181.78H38.235Z" fill="white"/>
<path fill-rule="evenodd" clip-rule="evenodd" d="M285.029 138.711C285.481 137.998 286.425 137.786 287.138 138.237L293.701 142.393C294.247 142.739 294.499 143.374 294.385 143.973C294.407 144.293 294.328 144.623 294.138 144.913L290.172 150.971C289.709 151.677 288.762 151.874 288.056 151.412C287.349 150.95 287.152 150.002 287.614 149.296L289.764 146.013C218.9 149.002 159.512 165.454 132 188.049V180.79C163.394 160.289 221.041 145.696 288.695 142.842L285.503 140.82C284.789 140.368 284.577 139.424 285.029 138.711Z" fill="white"/>
<circle cx="117" cy="185" r="15" fill="url(#paint0_radial)"/>
<line x1="54.5" y1="186.5" x2="97.5" y2="186.5" stroke="white" stroke-width="3" stroke-linecap="round" stroke-dasharray="15 5"/>
<line x1="134.5" y1="189.5" x2="220.5" y2="189.5" stroke="white" stroke-width="3" stroke-linecap="round" stroke-dasharray="15 5"/>
<line x1="117.5" y1="263.5" x2="117.5" y2="203.5" stroke="white" stroke-width="3" stroke-linecap="round" stroke-dasharray="15 5"/>
<path d="M38.212 196.063C37.8527 196.063 37.526 195.981 37.232 195.818C36.9427 195.655 36.714 195.424 36.546 195.125C36.3827 194.822 36.301 194.472 36.301 194.075C36.301 193.683 36.385 193.338 36.553 193.039C36.7257 192.736 36.959 192.505 37.253 192.346C37.547 192.183 37.876 192.101 38.24 192.101C38.604 192.101 38.933 192.183 39.227 192.346C39.521 192.505 39.752 192.733 39.92 193.032C40.0927 193.331 40.179 193.678 40.179 194.075C40.179 194.472 40.0903 194.822 39.913 195.125C39.7403 195.424 39.5047 195.655 39.206 195.818C38.9073 195.981 38.576 196.063 38.212 196.063ZM38.212 195.503C38.4407 195.503 38.6553 195.449 38.856 195.342C39.0567 195.235 39.2177 195.074 39.339 194.859C39.465 194.644 39.528 194.383 39.528 194.075C39.528 193.767 39.4673 193.506 39.346 193.291C39.2247 193.076 39.066 192.918 38.87 192.815C38.674 192.708 38.4617 192.654 38.233 192.654C37.9997 192.654 37.785 192.708 37.589 192.815C37.3977 192.918 37.2437 193.076 37.127 193.291C37.0103 193.506 36.952 193.767 36.952 194.075C36.952 194.388 37.008 194.651 37.12 194.866C37.2367 195.081 37.3907 195.242 37.582 195.349C37.7733 195.452 37.9833 195.503 38.212 195.503Z" fill="white"/>
<path d="M122.212 284.063C121.853 284.063 121.526 283.981 121.232 283.818C120.943 283.655 120.714 283.424 120.546 283.125C120.383 282.822 120.301 282.472 120.301 282.075C120.301 281.683 120.385 281.338 120.553 281.039C120.726 280.736 120.959 280.505 121.253 280.346C121.547 280.183 121.876 280.101 122.24 280.101C122.604 280.101 122.933 280.183 123.227 280.346C123.521 280.505 123.752 280.733 123.92 281.032C124.093 281.331 124.179 281.678 124.179 282.075C124.179 282.472 124.09 282.822 123.913 283.125C123.74 283.424 123.505 283.655 123.206 283.818C122.907 283.981 122.576 284.063 122.212 284.063ZM122.212 283.503C122.441 283.503 122.655 283.449 122.856 283.342C123.057 283.235 123.218 283.074 123.339 282.859C123.465 282.644 123.528 282.383 123.528 282.075C123.528 281.767 123.467 281.506 123.346 281.291C123.225 281.076 123.066 280.918 122.87 280.815C122.674 280.708 122.462 280.654 122.233 280.654C122 280.654 121.785 280.708 121.589 280.815C121.398 280.918 121.244 281.076 121.127 281.291C121.01 281.506 120.952 281.767 120.952 282.075C120.952 282.388 121.008 282.651 121.12 282.866C121.237 283.081 121.391 283.242 121.582 283.349C121.773 283.452 121.983 283.503 122.212 283.503Z" fill="white"/>
<path d="M154 186.5C154 183.306 152.727 180.202 150.38 177.669L136.5 186.5H154Z" fill="white"/>
<path d="M161.125 184.15C160.145 184.15 159.35 183.805 158.74 183.115C158.13 182.415 157.825 181.38 157.825 180.01C157.825 178.65 158.125 177.61 158.725 176.89C159.325 176.17 160.165 175.81 161.245 175.81C161.835 175.81 162.325 175.915 162.715 176.125C163.115 176.325 163.445 176.63 163.705 177.04H163.795C163.845 176.87 163.91 176.685 163.99 176.485C164.07 176.285 164.165 176.11 164.275 175.96H165.31C165.24 176.18 165.175 176.47 165.115 176.83C165.055 177.19 165.01 177.57 164.98 177.97C164.95 178.37 164.935 178.75 164.935 179.11V182.23C164.935 182.54 164.995 182.76 165.115 182.89C165.235 183.01 165.38 183.07 165.55 183.07C165.63 183.07 165.715 183.06 165.805 183.04C165.895 183.02 165.96 183.005 166 182.995V183.955C165.93 183.995 165.815 184.035 165.655 184.075C165.495 184.125 165.33 184.15 165.16 184.15C164.79 184.15 164.485 184.06 164.245 183.88C164.015 183.7 163.845 183.38 163.735 182.92H163.63C163.4 183.26 163.095 183.55 162.715 183.79C162.335 184.03 161.805 184.15 161.125 184.15ZM161.35 183.055C162.18 183.055 162.765 182.82 163.105 182.35C163.455 181.87 163.63 181.115 163.63 180.085V179.995C163.63 178.995 163.465 178.235 163.135 177.715C162.815 177.185 162.215 176.92 161.335 176.92C160.605 176.92 160.065 177.185 159.715 177.715C159.365 178.245 159.19 179.015 159.19 180.025C159.19 181.025 159.36 181.78 159.7 182.29C160.05 182.8 160.6 183.055 161.35 183.055Z" fill="white"/>
<line x1="133.4" y1="180.917" x2="189.917" y2="142.6" stroke="white" stroke-width="3" stroke-linecap="round"/>
<line x1="324" y1="102.5" x2="324" y2="75.5" stroke="white" stroke-width="3" stroke-linecap="round"/>
<line x1="184.5" y1="141.5" x2="190" y2="141.5" stroke="white" stroke-width="3" stroke-linecap="round"/>
<line x1="324" y1="103.248" x2="327.889" y2="99.3592" stroke="white" stroke-width="3" stroke-linecap="round"/>
<line x1="190" y1="147" x2="190" y2="141.5" stroke="white" stroke-width="3" stroke-linecap="round"/>
<line x1="320.121" y1="99.3594" x2="324.01" y2="103.248" stroke="white" stroke-width="3" stroke-linecap="round"/>
<path d="M182.82 136.12H181V118.1H182.82V136.12ZM190.44 132.32L193.84 123.04H195.78L191.48 134H189.36L185.06 123.04H187.02L190.44 132.32ZM205.183 136.12H203.363V118.1H205.183V136.12Z" fill="white"/>
<path d="M198.16 136.09C197.647 136.09 197.18 135.973 196.76 135.74C196.347 135.507 196.02 135.177 195.78 134.75C195.547 134.317 195.43 133.817 195.43 133.25C195.43 132.69 195.55 132.197 195.79 131.77C196.037 131.337 196.37 131.007 196.79 130.78C197.21 130.547 197.68 130.43 198.2 130.43C198.72 130.43 199.19 130.547 199.61 130.78C200.03 131.007 200.36 131.333 200.6 131.76C200.847 132.187 200.97 132.683 200.97 133.25C200.97 133.817 200.843 134.317 200.59 134.75C200.343 135.177 200.007 135.507 199.58 135.74C199.153 135.973 198.68 136.09 198.16 136.09ZM198.16 135.29C198.487 135.29 198.793 135.213 199.08 135.06C199.367 134.907 199.597 134.677 199.77 134.37C199.95 134.063 200.04 133.69 200.04 133.25C200.04 132.81 199.953 132.437 199.78 132.13C199.607 131.823 199.38 131.597 199.1 131.45C198.82 131.297 198.517 131.22 198.19 131.22C197.857 131.22 197.55 131.297 197.27 131.45C196.997 131.597 196.777 131.823 196.61 132.13C196.443 132.437 196.36 132.81 196.36 133.25C196.36 133.697 196.44 134.073 196.6 134.38C196.767 134.687 196.987 134.917 197.26 135.07C197.533 135.217 197.833 135.29 198.16 135.29Z" fill="white"/>
<path d="M202 119L197 116.113V121.887L202 119ZM185 119.5H197.5V118.5H185V119.5Z" fill="white"/>
<path d="M352 78L347 75.1132V80.8868L352 78ZM335 78.5H347.5V77.5H335V78.5Z" fill="white"/>
<path d="M342.06 82.86C343.007 82.86 343.833 83.0667 344.54 83.48C345.26 83.8933 345.793 84.4133 346.14 85.04V83.04H347.98V94.24C347.98 95.24 347.767 96.1267 347.34 96.9C346.913 97.6867 346.3 98.3 345.5 98.74C344.713 99.18 343.793 99.4 342.74 99.4C341.3 99.4 340.1 99.06 339.14 98.38C338.18 97.7 337.613 96.7733 337.44 95.6H339.24C339.44 96.2667 339.853 96.8 340.48 97.2C341.107 97.6133 341.86 97.82 342.74 97.82C343.74 97.82 344.553 97.5067 345.18 96.88C345.82 96.2533 346.14 95.3733 346.14 94.24V91.94C345.78 92.58 345.247 93.1133 344.54 93.54C343.833 93.9667 343.007 94.18 342.06 94.18C341.087 94.18 340.2 93.94 339.4 93.46C338.613 92.98 337.993 92.3067 337.54 91.44C337.087 90.5733 336.86 89.5867 336.86 88.48C336.86 87.36 337.087 86.38 337.54 85.54C337.993 84.6867 338.613 84.0267 339.4 83.56C340.2 83.0933 341.087 82.86 342.06 82.86ZM346.14 88.5C346.14 87.6733 345.973 86.9533 345.64 86.34C345.307 85.7267 344.853 85.26 344.28 84.94C343.72 84.6067 343.1 84.44 342.42 84.44C341.74 84.44 341.12 84.6 340.56 84.92C340 85.24 339.553 85.7067 339.22 86.32C338.887 86.9333 338.72 87.6533 338.72 88.48C338.72 89.32 338.887 90.0533 339.22 90.68C339.553 91.2933 340 91.7667 340.56 92.1C341.12 92.42 341.74 92.58 342.42 92.58C343.1 92.58 343.72 92.42 344.28 92.1C344.853 91.7667 345.307 91.2933 345.64 90.68C345.973 90.0533 346.14 89.3267 346.14 88.5Z" fill="white"/>
</g>
<defs>
<filter id="filter0_i" x="0" y="0" width="440" height="317" filterUnits="userSpaceOnUse" color-interpolation-filters="sRGB">
<feFlood flood-opacity="0" result="BackgroundImageFix"/>
<feBlend mode="normal" in="SourceGraphic" in2="BackgroundImageFix" result="shape"/>
<feColorMatrix in="SourceAlpha" type="matrix" values="0 0 0 0 0 0 0 0 0 0 0 0 0 0 0 0 0 0 127 0" result="hardAlpha"/>
<feOffset dx="1" dy="1"/>
<feComposite in2="hardAlpha" operator="arithmetic" k2="-1" k3="1"/>
<feColorMatrix type="matrix" values="0 0 0 0 1 0 0 0 0 1 0 0 0 0 1 0 0 0 0.5 0"/>
<feBlend mode="normal" in2="shape" result="effect1_innerShadow"/>
</filter>
<radialGradient id="paint0_radial" cx="0" cy="0" r="1" gradientUnits="userSpaceOnUse" gradientTransform="translate(115 183) rotate(-164.745) scale(22.8035)">
<stop stop-color="#2196F3"/>
<stop offset="0.543774" stop-color="#4282DB" stop-opacity="0.833333"/>
<stop offset="1" stop-color="#E91E63" stop-opacity="0"/>
</radialGradient>
</defs>
</svg>
